<svg width="25" height="26" viewBox="0 0 25 26" fill="none" xmlns="http://www.w3.org/2000/svg">
<g clip-path="url(#clip0_3_28)">
<path d="M21.875 0H3.125C2.2962 0 1.50134 0.34241 0.915291 0.951903C0.32924 1.5614 0 2.38805 0 3.25L0 21.6667H7.21146L11.1156 25.0857C11.4994 25.4411 11.9955 25.6374 12.5094 25.6371C13.0044 25.6392 13.4829 25.4522 13.8542 25.1117L17.8615 21.6667H25V3.25C25 2.38805 24.6708 1.5614 24.0847 0.951903C23.4987 0.34241 22.7038 0 21.875 0ZM12.5 3.25C13.2211 3.25 13.926 3.47238 14.5255 3.88901C15.1251 4.30564 15.5924 4.89782 15.8683 5.59066C16.1443 6.28349 16.2165 7.04587 16.0758 7.78138C15.9351 8.51689 15.5879 9.1925 15.078 9.72278C14.5681 10.2531 13.9185 10.6142 13.2113 10.7605C12.504 10.9068 11.771 10.8317 11.1048 10.5447C10.4386 10.2577 9.86921 9.77174 9.4686 9.1482C9.06799 8.52467 8.85417 7.79159 8.85417 7.04167C8.85417 6.03605 9.23828 5.07163 9.92201 4.36055C10.6057 3.64948 11.5331 3.25 12.5 3.25ZM18.75 18.4167H16.6667V16.25C16.6667 15.9627 16.5569 15.6871 16.3616 15.484C16.1662 15.2808 15.9013 15.1667 15.625 15.1667H9.375C9.09873 15.1667 8.83378 15.2808 8.63843 15.484C8.44308 15.6871 8.33333 15.9627 8.33333 16.25V18.4167H6.25V16.25C6.25 15.388 6.57924 14.5614 7.16529 13.9519C7.75134 13.3424 8.5462 13 9.375 13H15.625C16.4538 13 17.2487 13.3424 17.8347 13.9519C18.4208 14.5614 18.75 15.388 18.75 16.25V18.4167ZM10.9375 7.04167C10.9375 6.72027 11.0291 6.40609 11.2008 6.13886C11.3725 5.87163 11.6165 5.66335 11.9021 5.54036C12.1876 5.41737 12.5017 5.38519 12.8048 5.44789C13.1079 5.51059 13.3863 5.66536 13.6049 5.89262C13.8234 6.11988 13.9722 6.40943 14.0325 6.72464C14.0928 7.03986 14.0618 7.3666 13.9436 7.66353C13.8253 7.96046 13.625 8.21425 13.3681 8.3928C13.1111 8.57136 12.809 8.66667 12.5 8.66667C12.0856 8.66667 11.6882 8.49546 11.3951 8.19071C11.1021 7.88597 10.9375 7.47264 10.9375 7.04167Z" fill="#64B5F6"/>
</g>
<defs>
<clipPath id="clip0_3_28">
<rect width="25" height="26" fill="white"/>
</clipPath>
</defs>
</svg>
